<svg xmlns="http://www.w3.org/2000/svg" viewBox="0 0 400 100" fill="none" width="400" height="100">
  <g transform="translate(5, 5) scale(0.9)">
      <path d="M50 5 L89 27.5 V72.5 L50 95 L11 72.5 V27.5 Z" stroke="#00C2CB" stroke-width="6" stroke-linejoin="round"/>
      <g transform="translate(50,50)">
        <path d="M0 -30 Q15 -30 22 -10 L0 0 Z" stroke="#00C2CB" stroke-width="2" fill="none" transform="rotate(0)"/>
        <path d="M0 -30 Q15 -30 22 -10 L0 0 Z" stroke="#00C2CB" stroke-width="2" fill="none" transform="rotate(60)"/>
        <path d="M0 -30 Q15 -30 22 -10 L0 0 Z" stroke="#00C2CB" stroke-width="2" fill="none" transform="rotate(120)"/>
        <path d="M0 -30 Q15 -30 22 -10 L0 0 Z" stroke="#00C2CB" stroke-width="2" fill="none" transform="rotate(180)"/>
        <path d="M0 -30 Q15 -30 22 -10 L0 0 Z" stroke="#00C2CB" stroke-width="2" fill="none" transform="rotate(240)"/>
        <path d="M0 -30 Q15 -30 22 -10 L0 0 Z" stroke="#00C2CB" stroke-width="2" fill="none" transform="rotate(300)"/>
      </g>
      <circle cx="50" cy="50" r="12" fill="#00C2CB"/>
      <circle cx="82" cy="18" r="4" fill="#00C2CB"/>
  </g>

  <text x="110" y="68" font-family="Arial, Helvetica, sans-serif" font-weight="900" font-size="50" fill="#DCE3E8" letter-spacing="1">IRON SCOUT</text>
</svg>
