<svg xmlns="http://www.w3.org/2000/svg" viewBox="0 0 100 100" fill="none" width="100" height="100">
  <path d="M50 5 L89 27.5 V72.5 L50 95 L11 72.5 V27.5 Z" stroke="#343A40" stroke-width="6" stroke-linejoin="round"/>

  <g transform="translate(50,50)">
    <path d="M0 -30 Q15 -30 22 -10 L0 0 Z" fill="#4B5F44" transform="rotate(0)"/>
    <path d="M0 -30 Q15 -30 22 -10 L0 0 Z" fill="#4B5F44" transform="rotate(60)"/>
    <path d="M0 -30 Q15 -30 22 -10 L0 0 Z" fill="#4B5F44" transform="rotate(120)"/>
    <path d="M0 -30 Q15 -30 22 -10 L0 0 Z" fill="#4B5F44" transform="rotate(180)"/>
    <path d="M0 -30 Q15 -30 22 -10 L0 0 Z" fill="#4B5F44" transform="rotate(240)"/>
    <path d="M0 -30 Q15 -30 22 -10 L0 0 Z" fill="#4B5F44" transform="rotate(300)"/>
  </g>

  <circle cx="50" cy="50" r="12" fill="#005691"/>

  <circle cx="82" cy="18" r="4" fill="#F15A29"/>
</svg>
